<svg width="159" height="66" viewBox="0 0 159 66" fill="none" xmlns="http://www.w3.org/2000/svg">
<path d="M1.52148 39V13.0234H4.75V35.8086H15.4746V39H1.52148ZM17.5527 33.5078V24.3418C17.5527 23.179 18.0723 22.041 19.1113 20.9277C20.3978 19.5918 22.0059 18.9238 23.9355 18.9238V21.9297C22.4759 21.9297 21.4616 22.5358 20.8926 23.748C20.7194 24.1191 20.6328 24.4902 20.6328 24.8613V33.0254C20.6328 33.9408 21.0534 34.7201 21.8945 35.3633C22.4883 35.8086 23.1686 36.0312 23.9355 36.0312V39.0371C21.5853 39.0371 19.7669 38.0846 18.4805 36.1797C17.862 35.2396 17.5527 34.349 17.5527 33.5078ZM25.5312 39.0371V36.0312C26.8424 36.0312 27.7826 35.4375 28.3516 34.25C28.5495 33.8542 28.6484 33.4707 28.6484 33.0996V24.8613C28.6484 23.847 28.2155 23.043 27.3496 22.4492C26.8053 22.1029 26.1868 21.9297 25.4941 21.9297V18.9238C27.7702 18.9238 29.5267 19.8516 30.7637 21.707C31.3822 22.6224 31.6914 23.5007 31.6914 24.3418V33.5078C31.6914 34.7201 31.1719 35.8952 30.1328 37.0332C28.9206 38.3444 27.3867 39.0124 25.5312 39.0371ZM33.9551 23.5996V20.5566H36.4043V18.4043C36.4043 17.0189 36.862 15.7572 37.7773 14.6191C38.7917 13.4316 40.1029 12.8255 41.7109 12.8008H43.084L42.3789 15.8066H41.6738C40.2637 15.8809 39.5462 16.7467 39.5215 18.4043V20.5938L42.0449 20.5566V23.5996H39.5215V39H36.4043V23.5996H33.9551ZM44.123 22.1523V19.1465H46.5723V12.7266H49.7266V19.1465H52.1016V22.1895H49.7266V32.8398C49.7266 34.5964 50.444 35.5736 51.8789 35.7715C52.151 35.821 52.4232 35.8457 52.6953 35.8457H53.2148L53.9199 39H52.584C49.541 38.9753 47.6732 37.8372 46.9805 35.5859C46.7331 34.7448 46.6094 33.7057 46.6094 32.4688L46.5723 22.1523H44.123ZM55.5898 39V13.0234H58.8184V24.3418H62.1582V27.4961H58.8184V39H55.5898ZM64.0137 27.4961V24.3418H67.3164V13.0234H70.582V39H67.3164V27.4961H64.0137ZM73.4766 33.5078V24.3418C73.4766 23.179 73.9961 22.041 75.0352 20.9277C76.3216 19.5918 77.9297 18.9238 79.8594 18.9238V21.9297C78.3997 21.9297 77.3854 22.5358 76.8164 23.748C76.6432 24.1191 76.5566 24.4902 76.5566 24.8613V33.0254C76.5566 33.9408 76.9772 34.7201 77.8184 35.3633C78.4121 35.8086 79.0924 36.0312 79.8594 36.0312V39.0371C77.5091 39.0371 75.6908 38.0846 74.4043 36.1797C73.7858 35.2396 73.4766 34.349 73.4766 33.5078ZM81.4551 39.0371V36.0312C82.7663 36.0312 83.7064 35.4375 84.2754 34.25C84.4733 33.8542 84.5723 33.4707 84.5723 33.0996V24.8613C84.5723 23.847 84.1393 23.043 83.2734 22.4492C82.7292 22.1029 82.1107 21.9297 81.418 21.9297V18.9238C83.694 18.9238 85.4505 19.8516 86.6875 21.707C87.306 22.6224 87.6152 23.5007 87.6152 24.3418V33.5078C87.6152 34.7201 87.0957 35.8952 86.0566 37.0332C84.8444 38.3444 83.3105 39.0124 81.4551 39.0371ZM90.4355 33.6562V18.9609H93.5898V33.2852C93.5898 34.1758 94.0352 34.918 94.9258 35.5117C95.5195 35.8828 96.1751 36.0684 96.8926 36.0684V39.1855C94.5176 39.1855 92.6868 38.2578 91.4004 36.4023C90.7572 35.4622 90.4355 34.5469 90.4355 33.6562ZM98.5254 39.1855V36.0684C99.8613 36.0684 100.839 35.5365 101.457 34.4727C101.68 34.0768 101.791 33.681 101.791 33.2852V18.9609H104.945V33.6562C104.945 34.819 104.413 35.9694 103.35 37.1074C102.063 38.4681 100.455 39.1608 98.5254 39.1855ZM107.098 33.7305L110.029 33.1738C110.029 34.2871 110.611 35.1654 111.773 35.8086C112.342 36.0807 112.887 36.2292 113.406 36.2539V39.1855C111.007 39.1855 109.213 38.3197 108.025 36.5879C107.407 35.6725 107.098 34.7201 107.098 33.7305ZM107.283 24.6016C107.283 22.3503 108.31 20.6803 110.363 19.5918C111.353 19.0723 112.342 18.8125 113.332 18.8125V21.707C112.194 21.707 111.316 22.1771 110.697 23.1172C110.376 23.5872 110.215 24.082 110.215 24.6016C110.215 25.3932 110.833 26.0365 112.07 26.5312C113.01 26.9271 114.829 27.4466 117.525 28.0898C119.208 28.4362 120.408 29.265 121.125 30.5762C121.496 31.2689 121.682 32.0482 121.682 32.9141C121.682 35.2891 120.729 37.0456 118.824 38.1836C117.711 38.8516 116.437 39.1855 115.002 39.1855V36.2539C116.14 36.2539 117.092 35.8581 117.859 35.0664C118.404 34.4974 118.676 33.8294 118.676 33.0625C118.676 32.0729 117.699 31.2812 115.744 30.6875C115.249 30.5391 114.458 30.3288 113.369 30.0566C112.206 29.7845 111.365 29.5618 110.846 29.3887C108.965 28.6465 107.827 27.5208 107.432 26.0117C107.333 25.5664 107.283 25.0964 107.283 24.6016ZM114.965 21.7441V18.8125C117.092 18.8125 118.812 19.6042 120.123 21.1875C120.939 22.2018 121.348 23.2656 121.348 24.3789L118.416 24.8613C118.416 23.5007 117.674 22.5482 116.189 22.0039C115.744 21.8307 115.336 21.7441 114.965 21.7441ZM123.871 33.5078V24.3047C123.896 23.1667 124.44 22.041 125.504 20.9277C126.79 19.6165 128.349 18.9486 130.18 18.9238V21.8555C128.992 21.8555 128.064 22.375 127.396 23.4141C127.124 23.8594 126.988 24.2676 126.988 24.6387V27.1621H135.301V24.6387C135.301 23.5254 134.732 22.709 133.594 22.1895C133.074 21.9421 132.542 21.8184 131.998 21.8184V18.9238C133.705 18.9238 135.227 19.5299 136.562 20.7422C137.676 21.806 138.245 22.9811 138.27 24.2676V30.168H126.988V33.5078C126.988 34.2005 127.384 34.8438 128.176 35.4375C128.819 35.8828 129.499 36.1055 130.217 36.1055V39C127.965 39 126.197 38.0846 124.91 36.2539C124.217 35.2891 123.871 34.3737 123.871 33.5078ZM131.998 39V36.0684C133.482 36.0684 134.596 35.4251 135.338 34.1387C135.486 33.8665 135.598 33.6068 135.672 33.3594L138.307 34.3242C137.861 36.0312 136.847 37.3177 135.264 38.1836C134.249 38.7279 133.161 39 131.998 39Z" fill="white"/>
<path d="M0.299 63L3.473 58.791L0.4945 54.835H1.4375L4.1515 58.469H5.267V54.835H6.0605V58.469H7.1645L9.89 54.835H10.833L7.843 58.791L11.017 63H10.0855L7.1875 59.205H6.0605V63H5.267V59.205H4.1285L1.2305 63H0.299ZM13.781 63V54.835H14.5745V61.896L19.6345 54.835H20.382V63H19.5885V56.0655L14.586 63H13.781ZM29.6483 55.548H26.7388V63H25.9338V55.548H23.0243V54.835H29.6483V55.548ZM37.7714 63V55.548H34.4364L34.3904 57.273C34.3521 58.4 34.2716 59.3353 34.1489 60.079C34.0262 60.8227 33.8537 61.4092 33.6314 61.8385C33.4091 62.2602 33.1369 62.563 32.8149 62.747C32.4929 62.9233 32.1096 63.0115 31.6649 63.0115V62.2985C31.9639 62.2985 32.2284 62.2218 32.4584 62.0685C32.6884 61.9152 32.8839 61.6468 33.0449 61.2635C33.2059 60.8802 33.3324 60.3512 33.4244 59.6765C33.5241 58.9942 33.5892 58.1317 33.6199 57.089L33.6889 54.835H38.5649V63H37.7714ZM45.2759 63.0575C44.7009 63.0575 44.1795 62.9425 43.7119 62.7125C43.2442 62.4825 42.8417 62.172 42.5044 61.781C42.167 61.3823 41.9064 60.9377 41.7224 60.447C41.5384 59.9487 41.4464 59.4388 41.4464 58.9175C41.4464 58.3732 41.5422 57.8557 41.7339 57.365C41.9255 56.8667 42.1939 56.4258 42.5389 56.0425C42.8915 55.6515 43.3017 55.3448 43.7694 55.1225C44.237 54.8925 44.743 54.7775 45.2874 54.7775C45.8624 54.7775 46.3837 54.8963 46.8514 55.134C47.319 55.3717 47.7177 55.6898 48.0474 56.0885C48.3847 56.4872 48.6454 56.9318 48.8294 57.4225C49.0134 57.9132 49.1054 58.4153 49.1054 58.929C49.1054 59.4733 49.0095 59.9947 48.8179 60.493C48.6262 60.9837 48.3579 61.4245 48.0129 61.8155C47.6679 62.1988 47.2615 62.5017 46.7939 62.724C46.3262 62.9463 45.8202 63.0575 45.2759 63.0575ZM42.2514 58.9175C42.2514 59.3622 42.3242 59.7915 42.4699 60.2055C42.6155 60.6118 42.8225 60.976 43.0909 61.298C43.3592 61.6123 43.6774 61.8653 44.0454 62.057C44.421 62.241 44.8312 62.333 45.2759 62.333C45.7435 62.333 46.1614 62.2372 46.5294 62.0455C46.905 61.8462 47.2232 61.5855 47.4839 61.2635C47.7522 60.9338 47.9554 60.5658 48.0934 60.1595C48.2314 59.7532 48.3004 59.3392 48.3004 58.9175C48.3004 58.4728 48.2275 58.0473 48.0819 57.641C47.9362 57.2347 47.7254 56.8705 47.4494 56.5485C47.181 56.2265 46.8629 55.9735 46.4949 55.7895C46.1269 55.6055 45.7205 55.5135 45.2759 55.5135C44.8159 55.5135 44.398 55.6093 44.0224 55.801C43.6544 55.9927 43.3362 56.2533 43.0679 56.583C42.8072 56.905 42.604 57.2692 42.4584 57.6755C42.3204 58.0818 42.2514 58.4958 42.2514 58.9175ZM58.1441 60.8955C58.1441 61.3018 58.0406 61.666 57.8336 61.988C57.6266 62.3023 57.3468 62.5515 56.9941 62.7355C56.6491 62.9118 56.2696 63 55.8556 63H52.0031V54.835H55.9361C56.3194 54.835 56.6491 54.9385 56.9251 55.1455C57.2088 55.3448 57.4234 55.6055 57.5691 55.9275C57.7224 56.2418 57.7991 56.5715 57.7991 56.9165C57.7991 57.3228 57.6956 57.6985 57.4886 58.0435C57.2816 58.3885 56.9941 58.6453 56.6261 58.814C57.0938 58.952 57.4618 59.2088 57.7301 59.5845C58.0061 59.9602 58.1441 60.3972 58.1441 60.8955ZM57.3391 60.7575C57.3391 60.4815 57.2778 60.2285 57.1551 59.9985C57.0324 59.7608 56.8638 59.5692 56.6491 59.4235C56.4421 59.2778 56.2044 59.205 55.9361 59.205H52.8081V62.2985H55.8556C56.1316 62.2985 56.3808 62.2257 56.6031 62.08C56.8254 61.9343 57.0018 61.7465 57.1321 61.5165C57.2701 61.2788 57.3391 61.0258 57.3391 60.7575ZM52.8081 55.5365V58.5495H55.6141C55.8824 58.5495 56.1201 58.4805 56.3271 58.3425C56.5341 58.1968 56.6989 58.009 56.8216 57.779C56.9443 57.549 57.0056 57.3037 57.0056 57.043C57.0056 56.767 56.9481 56.5178 56.8331 56.2955C56.7181 56.0655 56.5609 55.8815 56.3616 55.7435C56.1623 55.6055 55.9361 55.5365 55.6831 55.5365H52.8081ZM61.0883 63V54.835H61.8818V61.896L66.9418 54.835H67.6893V63H66.8958V56.0655L61.8933 63H61.0883ZM71.2056 63V54.835H71.9991V61.896L77.0591 54.835H77.8066V63H77.0131V56.0655L72.0106 63H71.2056ZM74.5176 54.145C74.1419 54.145 73.8237 54.0913 73.5631 53.984C73.3101 53.869 73.1184 53.7157 72.9881 53.524C72.8577 53.3247 72.7887 53.11 72.7811 52.88H73.4136C73.4212 53.0793 73.5017 53.2595 73.6551 53.4205C73.8161 53.5815 74.1036 53.662 74.5176 53.662C74.9162 53.662 75.1961 53.5892 75.3571 53.4435C75.5181 53.2902 75.6024 53.1023 75.6101 52.88H76.2426C76.2349 53.11 76.1659 53.3247 76.0356 53.524C75.9052 53.7157 75.7136 53.869 75.4606 53.984C75.2152 54.0913 74.9009 54.145 74.5176 54.145ZM85.588 63V54.835H86.393V58.469H87.6235L90.4295 54.835H91.361L88.2905 58.791L91.5565 63H90.5675L87.6465 59.205H86.393V63H85.588ZM97.0964 63.0575C96.5214 63.0575 96.0001 62.9425 95.5324 62.7125C95.0647 62.4825 94.6622 62.172 94.3249 61.781C93.9876 61.3823 93.7269 60.9377 93.5429 60.447C93.3589 59.9487 93.2669 59.4388 93.2669 58.9175C93.2669 58.3732 93.3627 57.8557 93.5544 57.365C93.7461 56.8667 94.0144 56.4258 94.3594 56.0425C94.7121 55.6515 95.1222 55.3448 95.5899 55.1225C96.0576 54.8925 96.5636 54.7775 97.1079 54.7775C97.6829 54.7775 98.2042 54.8963 98.6719 55.134C99.1396 55.3717 99.5382 55.6898 99.8679 56.0885C100.205 56.4872 100.466 56.9318 100.65 57.4225C100.834 57.9132 100.926 58.4153 100.926 58.929C100.926 59.4733 100.83 59.9947 100.638 60.493C100.447 60.9837 100.178 61.4245 99.8334 61.8155C99.4884 62.1988 99.0821 62.5017 98.6144 62.724C98.1467 62.9463 97.6407 63.0575 97.0964 63.0575ZM94.0719 58.9175C94.0719 59.3622 94.1447 59.7915 94.2904 60.2055C94.4361 60.6118 94.6431 60.976 94.9114 61.298C95.1797 61.6123 95.4979 61.8653 95.8659 62.057C96.2416 62.241 96.6517 62.333 97.0964 62.333C97.5641 62.333 97.9819 62.2372 98.3499 62.0455C98.7256 61.8462 99.0437 61.5855 99.3044 61.2635C99.5727 60.9338 99.7759 60.5658 99.9139 60.1595C100.052 59.7532 100.121 59.3392 100.121 58.9175C100.121 58.4728 100.048 58.0473 99.9024 57.641C99.7567 57.2347 99.5459 56.8705 99.2699 56.5485C99.0016 56.2265 98.6834 55.9735 98.3154 55.7895C97.9474 55.6055 97.5411 55.5135 97.0964 55.5135C96.6364 55.5135 96.2186 55.6093 95.8429 55.801C95.4749 55.9927 95.1567 56.2533 94.8884 56.583C94.6277 56.905 94.4246 57.2692 94.2789 57.6755C94.1409 58.0818 94.0719 58.4958 94.0719 58.9175ZM111.057 63V56.353L108.102 61.5165H107.596L104.629 56.353V63H103.824V54.835H104.652L107.837 60.424L111.046 54.835H111.862V63H111.057ZM115.289 63V54.835H121.453V63H120.648V55.548H116.094V63H115.289ZM130.398 63V55.548H127.063L127.017 57.273C126.979 58.4 126.898 59.3353 126.776 60.079C126.653 60.8227 126.48 61.4092 126.258 61.8385C126.036 62.2602 125.764 62.563 125.442 62.747C125.12 62.9233 124.736 63.0115 124.292 63.0115V62.2985C124.591 62.2985 124.855 62.2218 125.085 62.0685C125.315 61.9152 125.511 61.6468 125.672 61.2635C125.833 60.8802 125.959 60.3512 126.051 59.6765C126.151 58.9942 126.216 58.1317 126.247 57.089L126.316 54.835H131.192V63H130.398ZM140.099 62.287V63H134.614V54.835H139.996V55.548H135.419V58.492H139.409V59.1705H135.419V62.287H140.099ZM143.001 63V54.835H143.806V58.469H145.037L147.843 54.835H148.774L145.704 58.791L148.97 63H147.981L145.06 59.205H143.806V63H143.001ZM150.68 58.86C150.68 58.3617 150.765 57.8748 150.933 57.3995C151.11 56.9165 151.363 56.4795 151.692 56.0885C152.022 55.6898 152.428 55.3755 152.911 55.1455C153.394 54.9078 153.942 54.789 154.556 54.789C155.284 54.789 155.905 54.9577 156.419 55.295C156.94 55.6247 157.323 56.0502 157.569 56.5715L156.936 56.9625C156.76 56.6022 156.538 56.3185 156.269 56.1115C156.001 55.8968 155.713 55.7435 155.407 55.6515C155.108 55.5595 154.809 55.5135 154.51 55.5135C154.019 55.5135 153.586 55.6132 153.21 55.8125C152.835 56.0042 152.516 56.2648 152.256 56.5945C152.003 56.9165 151.811 57.2807 151.681 57.687C151.55 58.0857 151.485 58.492 151.485 58.906C151.485 59.3583 151.562 59.7915 151.715 60.2055C151.869 60.6195 152.083 60.9875 152.359 61.3095C152.635 61.6238 152.957 61.8768 153.325 62.0685C153.701 62.2525 154.107 62.3445 154.544 62.3445C154.851 62.3445 155.165 62.2908 155.487 62.1835C155.809 62.0762 156.108 61.9113 156.384 61.689C156.668 61.4667 156.894 61.1792 157.063 60.8265L157.73 61.1715C157.561 61.5778 157.3 61.9228 156.948 62.2065C156.595 62.4902 156.2 62.7048 155.763 62.8505C155.334 62.9962 154.912 63.069 154.498 63.069C153.939 63.069 153.425 62.9502 152.957 62.7125C152.49 62.4672 152.083 62.1452 151.738 61.7465C151.401 61.3402 151.14 60.8878 150.956 60.3895C150.772 59.8835 150.68 59.3737 150.68 58.86Z" fill="white"/>
</svg>
